<svg id="OBJECTS" xmlns="http://www.w3.org/2000/svg" viewBox="0 0 240.19 240.18"><defs><style>.cls-1{fill:#32ba46;}.cls-2{fill:none;}.cls-3{fill:#fff;}</style></defs><path class="cls-1" d="M120.09,232.15a111.6,111.6,0,0,1-55.89-15l-43.66,15,9-46.23A110.78,110.78,0,0,1,8,120.09,112.06,112.06,0,1,1,120.09,232.15Z"/><path class="cls-2" d="M120.09,52.33A67.68,67.68,0,0,0,66.73,161.75L62.2,185.07l22-7.58A67.73,67.73,0,1,0,120.09,52.33Z"/><path class="cls-3" d="M120.09,193.3a72.85,72.85,0,0,1-36.51-9.83L55.06,193.3l5.86-30.21a72.33,72.33,0,0,1-14-43,73.21,73.21,0,1,1,73.2,73.21ZM84.9,171.5l2.2,1.38A62.4,62.4,0,1,0,71,158.39l1.54,2-3.21,16.5Z"/><path class="cls-3" d="M83.13,92s4.3-7.51,7.8-7.93,8-.43,9.23,1.85,6.65,15.6,6.65,15.6a5.22,5.22,0,0,1-.5,4.5,44.1,44.1,0,0,1-4.65,5.43,4,4,0,0,0,0,4.73A87.15,87.15,0,0,0,112,128.77c5.73,5.73,16.73,9.82,16.73,9.82a3.37,3.37,0,0,0,2.58-.79c1-1,6.43-7.79,6.43-7.79a3.83,3.83,0,0,1,4.65-.93c2.9,1.32,15.45,7.58,15.45,7.58a2.71,2.71,0,0,1,1.46,2.75c0,2.22-.89,7.64-2.73,9.48s-7.19,7.48-15.25,7.48S114,149.82,103.8,139.59s-19.3-20.6-21.45-30S80.49,95.85,83.13,92Z"/></svg>