<?xml version="1.0" encoding="utf-8"?>
<!-- Generator: Adobe Illustrator 25.2.1, SVG Export Plug-In . SVG Version: 6.00 Build 0)  -->
<svg version="1.1" id="Capa_1" xmlns="http://www.w3.org/2000/svg" xmlns:xlink="http://www.w3.org/1999/xlink" x="0px" y="0px"
	 viewBox="0 0 27 27" style="enable-background:new 0 0 27 27;" xml:space="preserve">
<style type="text/css">
	.st0{fill:#98CAEB;}
</style>
<path class="st0" d="M13.5,5.9c2.5,0,2.8,0,3.8,0.1c0.6,0,1.2,0.1,1.8,0.3c0.4,0.2,0.7,0.4,1,0.7c0.3,0.3,0.6,0.6,0.7,1
	C20.9,8.5,21,9.1,21,9.7c0,1,0.1,1.3,0.1,3.8s0,2.8-0.1,3.8c0,0.6-0.1,1.2-0.3,1.8c-0.2,0.4-0.4,0.7-0.7,1c-0.3,0.3-0.7,0.6-1.1,0.7
	c-0.6,0.2-1.1,0.3-1.7,0.3c-1,0-1.3,0.1-3.8,0.1s-2.8,0-3.8-0.1c-0.6,0-1.2-0.1-1.7-0.3c-0.4-0.2-0.7-0.4-1-0.7
	c-0.3-0.3-0.6-0.6-0.7-1C6.1,18.4,6,17.8,6,17.2c0-1-0.1-1.3-0.1-3.8s0-2.8,0.1-3.8C6,9.2,6.1,8.6,6.3,8C6.4,7.6,6.7,7.3,7,7
	c0.3-0.3,0.6-0.6,1-0.7C8.6,6.1,9.2,6,9.8,6C10.8,6,11,5.9,13.5,5.9 M13.5,4.3c-2.5,0-2.8,0-3.8,0c-0.8,0-1.5,0.2-2.2,0.4
	C6.8,4.9,6.2,5.3,5.8,5.8c-0.5,0.5-0.8,1-1.1,1.6C4.4,8.1,4.3,8.9,4.3,9.7c0,1-0.1,1.3-0.1,3.8s0,2.8,0.1,3.8c0,0.8,0.2,1.5,0.4,2.2
	c0.2,0.6,0.6,1.2,1.1,1.6c0.5,0.5,1,0.8,1.6,1.1c0.7,0.3,1.5,0.4,2.2,0.4c1,0,1.3,0,3.8,0s2.8,0,3.8,0c0.8,0,1.5-0.2,2.2-0.4
	c1.2-0.5,2.2-1.5,2.7-2.7c0.3-0.7,0.4-1.5,0.4-2.2c0-1,0-1.3,0-3.8s0-2.8,0-3.8c0-0.8-0.2-1.5-0.4-2.2c-0.2-0.6-0.6-1.2-1.1-1.6
	c-0.5-0.5-1-0.8-1.6-1.1c-0.7-0.3-1.5-0.4-2.2-0.4C16.3,4.3,16,4.3,13.5,4.3"/>
<path class="st0" d="M13.5,8.7c-2.6,0-4.8,2.1-4.8,4.8s2.1,4.8,4.8,4.8s4.8-2.1,4.8-4.8C18.3,10.9,16.1,8.7,13.5,8.7 M13.5,16.6
	c-1.7,0-3.1-1.4-3.1-3.1c0-1.7,1.4-3.1,3.1-3.1c1.7,0,3.1,1.4,3.1,3.1S15.2,16.6,13.5,16.6L13.5,16.6"/>
<path class="st0" d="M19.6,8.6c0,0.6-0.5,1.1-1.1,1.1c-0.6,0-1.1-0.5-1.1-1.1s0.5-1.1,1.1-1.1S19.6,7.9,19.6,8.6
	C19.6,8.6,19.6,8.6,19.6,8.6"/>
</svg>
