<?xml version="1.0" encoding="utf-8"?>
<!-- Generator: Adobe Illustrator 25.2.1, SVG Export Plug-In . SVG Version: 6.00 Build 0)  -->
<svg version="1.1" id="Capa_1" xmlns="http://www.w3.org/2000/svg" xmlns:xlink="http://www.w3.org/1999/xlink" x="0px" y="0px"
	 viewBox="0 0 252.3 113" style="enable-background:new 0 0 252.3 113;" xml:space="preserve">
<style type="text/css">
	.st0{fill:#002333;}
</style>
<path class="st0" d="M86.2,26.8C94,34.2,97.9,44.7,97.9,58c0,12.4-3.8,22-11.4,28.9c-7.6,6.9-18.1,10.3-31.6,10.3H15.5V81.7h11.2V31
	H15.5V15.5h38.3C67.7,15.5,78.5,19.3,86.2,26.8z M72.4,75.7c4.6-4,6.9-9.9,6.9-17.6c0-8.9-2.1-15.6-6.4-20.2S62.2,31,53.8,31h-9.2
	v50.6h7.8C61.2,81.7,67.9,79.7,72.4,75.7z"/>
<path class="st0" d="M166.6,17.5c6.3,3.4,11.3,8.6,14.6,15c3.5,6.6,5.2,14.5,5.2,23.8s-1.7,17.2-5.2,23.8c-3.2,6.3-8.3,11.6-14.5,15
	c-6.7,3.5-14.1,5.3-21.6,5.1c-7.5,0.2-14.9-1.6-21.5-5.1c-6.2-3.5-11.3-8.7-14.6-15c-3.5-6.6-5.3-14.5-5.3-23.8s1.7-17.2,5.2-23.8
	c3.2-6.4,8.2-11.6,14.5-15c6.6-3.5,14-5.2,21.5-5.1C152.4,12.3,159.9,14.1,166.6,17.5z M128,34.7c-3.8,4.8-5.7,12-5.7,21.5
	s1.9,16.7,5.7,21.6c3.8,4.9,9.5,7.3,17,7.3s13.2-2.5,17.1-7.3c3.8-4.9,5.7-12.1,5.8-21.6s-1.9-16.7-5.8-21.5
	c-3.8-4.9-9.5-7.3-17.1-7.3C137.4,27.5,131.8,29.9,128,34.7z"/>
<path class="st0" d="M192.7,15.5h44.1V31h-13.2v50.6h13.2v15.5h-44.2V81.7h13.3V31h-13.2V15.5z"/>
</svg>
